<mxfile host="app.diagrams.net" modified="2023-04-05T13:31:11.585Z" agent="Mozilla/5.0 (Macintosh; Intel Mac OS X 10_15_7) AppleWebKit/605.1.15 (KHTML, like Gecko) Version/16.1 Safari/605.1.15" version="21.1.4" etag="g2RT8SKR3DsGhCQEezzd" type="github">
  <diagram name="Seite-1" id="KscW3Ha6QqPd2Qc8iFJl">
    <mxGraphModel>
      <root>
        <mxCell id="0" />
        <mxCell id="1" parent="0" />
      </root>
    </mxGraphModel>
  </diagram>
</mxfile>
